<svg xmlns="http://www.w3.org/2000/svg" id="Layer_1" enable-background="new 0 0 128 128" viewBox="0 0 128 128"><path fill="#e1927a" d="M77.3,37.6c-2.6,2.5-5.1,4.7-7.8,7c-2.6,2.3-5.3,4.5-8.1,6.6c-5.5,4.3-11.2,8.4-17.6,12.1     c-3.6,2.1-8.2,0.8-10.2-2.8c-2.1-3.6-0.8-8.2,2.8-10.2c0.2-0.1,0.5-0.3,0.7-0.4l0,0c5.7-2.5,11.4-5.7,17-9.1     c2.8-1.7,5.6-3.6,8.3-5.4c2.7-1.9,5.5-3.8,8-5.7l0.1-0.1c2.3-1.7,5.6-1.3,7.4,1C79.5,32.8,79.2,35.8,77.3,37.6z"/><path fill="#e1927a" d="M83.9,50.4c-2.6,2.1-5.3,4.2-7.9,6.3c-2.7,2.1-5.3,4.1-8,6.1c-5.4,4-10.9,7.9-16.8,11.6     c-3.5,2.2-8.1,1.2-10.4-2.3c-2.2-3.5-1.2-8.1,2.3-10.4c0.2-0.2,0.5-0.3,0.8-0.4c5.7-2.7,11.5-5.8,17.2-9c2.8-1.6,5.7-3.3,8.5-5     c2.8-1.7,5.7-3.4,8.4-5.1l0,0c2.4-1.5,5.5-0.8,7,1.6C86.4,45.9,85.8,48.8,83.9,50.4z"/><path fill="#e1927a" d="M87.6,63.8L57.3,83c-3.5,2.2-8.1,1.2-10.4-2.3c-2.2-3.5-1.2-8.1,2.3-10.4c0.3-0.2,0.6-0.3,0.8-0.5l32.5-15.2     c2.6-1.2,5.7-0.1,6.9,2.5C90.7,59.6,89.8,62.4,87.6,63.8z"/><path fill="#e1927a" d="M86.4,78.4c-2.3,2.1-4.6,3.6-6.9,5.1c-2.3,1.5-4.7,2.7-7,4c-2.4,1.2-4.7,2.4-7.1,3.5     c-2.4,1.1-4.7,2.1-7.3,3.1l0,0c-3.9,1.5-8.2-0.4-9.7-4.3c-1.5-3.9,0.4-8.2,4.3-9.7c0.3-0.1,0.7-0.2,1-0.3     c2.2-0.5,4.6-1.2,6.9-1.8c2.3-0.7,4.6-1.4,6.9-2.2c2.3-0.8,4.5-1.6,6.6-2.6c2.1-0.9,4.1-1.9,5.8-3l0.2-0.1     c2.5-1.6,5.8-0.9,7.4,1.5C88.7,73.8,88.3,76.7,86.4,78.4z"/><path fill="#e1927a" d="M70.4,87.9c-8.9,3.1-21.5,24.8-36.4,24.6S5.4,96.8,8.1,83.7c1.3-6.2,8.5-22.3,11.2-27c9.2-16,24-6.8,28.2-4.4    C53,55.4,70.4,87.9,70.4,87.9z"/><path fill="#c1705d" d="M41.4,49l3.5,24.7c0.9,6.5-3.6,12.6-10.2,13.6c-6.5,0.9-12.6-3.6-13.6-10.2c-0.2-1.3-0.1-2.6,0.1-3.9    l6.3-16.6L41.4,49z"/><path fill="#e1927a" d="M46.5,42c-2.3,3.2-4.5,6.5-6.7,9.9c-1.1,1.7-2.1,3.4-3.2,5.1c-0.3,0.5-0.4,0.7-0.6,1     c-0.1,0.3-0.3,0.6-0.4,0.9c-0.3,0.6-0.5,1.3-0.6,1.9c-0.3,1.4-0.3,2.2-0.6,4.6c-0.2,2-0.5,4-0.7,6c-0.4,4-0.8,8-1,12     C32.4,90,26.7,95.1,20,94.7c-6.6-0.4-11.7-6.1-11.3-12.8c0.1-1.6,0.5-3.2,1.2-4.5c1.8-3.6,3.4-7.3,5-11c0.8-1.8,1.6-3.7,2.4-5.5     c0.4-1,0.7-1.7,1.3-3.1c0.5-1.3,1.1-2.5,1.8-3.6c0.7-1.2,1.4-2.3,2.2-3.3c0.4-0.5,0.8-1,1.2-1.5c0.4-0.5,0.9-1,1.2-1.3     c1.4-1.4,2.8-2.8,4.2-4.3c2.8-2.9,5.4-5.8,8-8.8c2.1-2.4,5.8-2.7,8.2-0.6C47.8,36.2,48.2,39.6,46.5,42z"/><g><circle cx="108.2" cy="73.5" r="13.1" fill="#bde5ec"/><ellipse cx="103.3" cy="67.2" fill="#fff" rx="3.4" ry="2.1" transform="rotate(-36.268 103.33 67.238)"/><circle cx="51.9" cy="79.8" r="18.8" fill="#bde5ec"/><ellipse cx="44.9" cy="70.9" fill="#fff" rx="4.9" ry="2.9" transform="rotate(-36.268 44.86 70.905)"/><circle cx="62" cy="55.7" r="13.1" fill="#bde5ec"/><ellipse cx="57.1" cy="49.5" fill="#fff" rx="3.4" ry="2.1" transform="rotate(-36.268 57.104 49.482)"/><g><circle cx="83.9" cy="51.5" r="19.6" fill="#bde5ec"/><ellipse cx="76.6" cy="42.2" fill="#fff" rx="5.1" ry="3.1" transform="rotate(-36.268 76.553 42.16)"/></g><g><circle cx="75.2" cy="73.2" r="13.1" fill="#bde5ec"/><ellipse cx="70.3" cy="66.9" fill="#fff" rx="3.4" ry="2.1" transform="rotate(-36.268 70.305 66.942)"/></g><g><circle cx="107" cy="56.7" r="13.1" fill="#bde5ec"/><ellipse cx="102.1" cy="50.5" fill="#fff" rx="3.4" ry="2.1" transform="rotate(-36.268 102.073 50.503)"/></g></g><g><path fill="#ffc298" d="M108.3,74.7l-0.5,0.9l-0.4,0.7c-0.3,0.5-0.6,0.9-0.9,1.3c-0.6,0.9-1.2,1.7-1.9,2.5c-0.6,0.8-1.3,1.6-2,2.4      c-0.7,0.8-1.3,1.6-2,2.3c-2.8,3-5.8,5.8-9,8.3c-0.8,0.6-1.6,1.2-2.4,1.8c-0.8,0.6-1.6,1.2-2.5,1.8l-2.5,1.7l-2.6,1.6      c-1.7,1.1-3.6,2-5.3,2.9c-1.8,0.9-3.7,1.7-5.5,2.6c-3.8,1.8-8.3,0.1-10.1-3.7s-0.1-8.3,3.7-10.1c0.2-0.1,0.4-0.2,0.5-0.2      l0.5-0.2c1.6-0.6,3.2-1.1,4.8-1.8c1.6-0.7,3.2-1.3,4.7-2.1l2.3-1.1l2.3-1.2c0.8-0.4,1.5-0.8,2.2-1.3c0.7-0.5,1.5-0.9,2.2-1.4      c2.9-1.9,5.6-4,8.1-6.3c0.6-0.6,1.3-1.2,1.9-1.8c0.6-0.6,1.2-1.2,1.8-1.8c0.6-0.6,1.1-1.2,1.6-1.9c0.3-0.3,0.5-0.6,0.7-0.9      l0.6-0.8l0.4-0.6c1.9-2.5,5.4-3,7.9-1.1C109.1,69.1,109.7,72.3,108.3,74.7z"/><path fill="#ffc298" d="M112.9,90.1c-0.5,0.5-0.8,0.8-1.2,1.1l-1.1,1c-0.7,0.7-1.4,1.3-2.2,1.9c-1.4,1.3-2.9,2.5-4.4,3.7      c-2.9,2.4-6,4.6-9,6.8c-3.1,2.2-6.2,4.2-9.3,6.2c-1.6,1-3.2,2-4.8,2.9l-4.8,2.8c-3.6,2.1-8.3,0.9-10.4-2.7      c-2.1-3.6-0.9-8.3,2.7-10.4c0.2-0.1,0.4-0.2,0.6-0.3l0.1-0.1l4.8-2.3c1.6-0.8,3.2-1.6,4.7-2.4c3.1-1.6,6.2-3.3,9.2-5.1      c3-1.8,6-3.6,8.9-5.5c1.4-1,2.9-1.9,4.3-3c0.7-0.5,1.4-1,2-1.5l1-0.8L105,82l0.3-0.3c2.4-2,6-1.6,8,0.8      C115.1,84.8,114.9,88,112.9,90.1z"/><path fill="#ffc298" d="M109.5 109.3c-3.3.9-6.8 1.9-10.3 2.9-3.4 1-6.9 2.1-10.3 3.2-6.8 2.2-13.7 4.4-20.5 6.8-3 1-6.2-.5-7.2-3.5s.5-6.2 3.5-7.2c.1 0 .2-.1.4-.1 7-1.9 14.1-3.8 21.1-5.5 3.5-.9 7.1-1.7 10.6-2.5 3.6-.8 7.1-1.6 10.8-2.3 2.3-.4 4.5 1.1 5 3.4C113.1 106.5 111.7 108.7 109.5 109.3L109.5 109.3zM106.2 67.8l-.6.8-.5.7c-.4.4-.7.8-1.1 1.2-.7.8-1.4 1.6-2.1 2.3-.7.7-1.5 1.5-2.2 2.1-.8.7-1.5 1.4-2.3 2-3.1 2.6-6.5 5-9.9 7.1-.9.5-1.8 1-2.6 1.5-.9.5-1.8 1-2.7 1.4l-2.7 1.4-2.8 1.2c-1.8.9-3.8 1.5-5.7 2.3-1.9.7-3.9 1.3-5.8 1.9-4 1.3-8.3-.9-9.6-4.9-1.3-4 .9-8.3 4.9-9.6.2-.1.4-.1.6-.2l.5-.1c1.7-.4 3.4-.7 5-1.2 1.6-.5 3.3-.9 4.9-1.5l2.4-.8 2.4-1c.8-.3 1.6-.6 2.4-1 .8-.4 1.6-.7 2.3-1.1 3.1-1.5 6-3.3 8.8-5.3.7-.5 1.4-1 2.1-1.5.7-.5 1.3-1.1 2-1.6.6-.5 1.3-1.1 1.9-1.7.3-.3.6-.6.9-.8l.7-.7.5-.5c2.2-2.2 5.8-2.3 8-.1C107.8 62.4 108 65.6 106.2 67.8z"/><path fill="#ffc298" d="M59.6,56.2l-5.2,12.4l-2.6,6.2l-0.3,0.8c-0.1,0.1-0.1,0.3-0.1,0.4c0,0.1-0.1,0.3-0.1,0.3      c0.1,0.1,0.2,0.1,0.4,0.2c0.1,0,0.3,0,0.4,0c0-0.1,0,0.1,0.1,0.2l0.1,0.4l0.1,0.7c0.6,4.2,1.3,8.7,2,13.1l1.1,6.6l0.6,3.3      l0.3,1.6c0,0.3,0.1,0.5,0.1,0.8l0.1,0.4l0,0c0,0,0,0,0-0.1l0-0.2l0-0.3c0.1,8.7-6.8,15.8-15.4,16s-15.8-6.8-16-15.4l0.1-0.7      l0-0.4l0-0.2l0-0.1l0.1-0.5l0.2-0.9l0.5-1.7l0.9-3.3l1.9-6.6c1.3-4.4,2.6-8.8,4-13.4l0.3-0.9l0.1-0.5c0.1-0.2,0.1-0.2,0.2-0.6      c0.3-1.1,0.7-2.2,1.1-3.2c0.5-1,1-2,1.7-2.9c0.2-0.3,0.3-0.3,0.4-0.4c0.1-0.1,0.2-0.2,0.3-0.3l0.5-0.7l4.1-5.2      c2.7-3.5,5.4-7,8.1-10.5l0.1-0.2c1.9-2.5,5.5-3,8-1.1C59.9,51,60.6,53.8,59.6,56.2z"/><path fill="#ffc298" d="M53.3,71.1c-1.1,4.8,1.5,9.6,11.8,7.1C75.3,75.7,79,117.4,68,122c-11,4.5-32.8,14.5-41.5-9     C18.2,90.4,53.3,71.1,53.3,71.1z"/><path fill="none" stroke="#e1927a" stroke-linecap="round" stroke-miterlimit="10" stroke-width="2.837" d="M78.9 88c0 0 3.5-.5 7.3-3.3M106.4 67.6c0 0-6.2 8-15 13.5M84.4 98.6c.2-.2 14.2-9.3 18.8-16.6M85.2 109.1c.4-.2 9.6-3.9 15.2-8.3"/></g><path fill="#2652e4" d="M110.4 23.6L110.4 23.6c-3 3-7.9 3-10.9 0l0 0c-2.4-2.4-2.9-6.1-1.3-9.1L105 2l6.7 12.5C113.4 17.5 112.8 21.2 110.4 23.6zM89.2 24.7L89.2 24.7c-2.3 2.3-6.1 2.3-8.5 0l0 0c-1.9-1.9-2.3-4.8-1-7.1L85 7.9l5.3 9.7C91.5 20 91.1 22.9 89.2 24.7z"/></svg>