<svg xmlns="http://www.w3.org/2000/svg" id="Layer_1" enable-background="new 0 0 128 128" viewBox="0 0 128 128"><rect width="88" height="73.9" x="21" y="54.1" fill="#bde5ec"/><polygon fill="#bde5ec" points="128 58.8 .3 58.8 65 0"/><path fill="#2652e4" d="M58.8,106.4c-1.8,0.5-5.8,1.5-9,2.3c-3,0.7-5.3,3-6.2,5.9L39.5,128h52.4l-3.6-13.4c-0.8-2.9-3.1-5.2-6-6.1    l-8.4-2.4L58.8,106.4z"/><path fill="#ffc298" d="M59.8,98.3l-1.1,8.1c0,0,9.3,9.4,15.2-0.3c-2.8-7.8-0.5-12.5-0.5-12.5L73,88.9l-8.2,0.9L59.8,98.3z"/><path fill="#e1927a" d="M70.7,92c0-0.2,2.4-1.6,2.5-1.8L73,88.9l-8.2,0.9l-4.9,8.4l-0.7,5.7c2.3,0.2,5.3-1.1,6.4-1.7    C69.2,100.5,70.3,97.2,70.7,92z"/><path fill="#ffc298" d="M54.6,98.2c3.8,4,9.2,2.6,11.1,1.4c2.8-1.6,7.3-5.4,8.2-10.8c0.9-5.4,0.9-9.9-2.8-14.9    c-3.8-5.1-18.4-4-18.9-3.2C48.3,77.2,50.8,94.2,54.6,98.2z"/><path fill="#892e1d" d="M45.4,67.8c0,0-1.8,6.6,5,9.1c6.6,2.4,13.7-2.5,13.7-2.5s0,10.7,9.3,19.1c8.1-2.1,12.4-21.9-1.3-28.7    c-14.2-7.1-22.3,4.7-22.3,4.7L45.4,67.8z"/><path fill="#ffc298" d="M68.4,88.3c0,0,3.9,1.4,3.8-1.9s-4.4-7-5.8-1.9"/><path fill="#892e1d" d="M51.3,70.1c-2,0-3.5-1.6-3.5-3.5c0-2,1.6-3.5,3.5-3.5"/><g><path fill="#e44450" d="M51.5 36.1v-.4c0-.8.3-1.3.8-1.3h3.4V23l-3.4.5c-.3 0-.5-.2-.6-.7-.1-.5-.2-.9-.2-1.4 0-.4.2-.7.7-.8l6.3-1.2c.2 0 .4.1.7.2.2.1.4.3.4.4v14.2h2.7c.5 0 .8.4.8 1.3v.4c0 .8-.3 1.3-.8 1.3h-9.8C51.8 37.3 51.5 36.9 51.5 36.1zM65.2 33.8c-.2 0-.4-.3-.6-.9-.2-.6-.3-1-.3-1.3 0-.3 0-.4.1-.5l7.5-11c.2-.3.7-.5 1.5-.5h.7c1 0 1.5.3 1.5.8v10.4h1c.5 0 .8.4.8 1.3v.4c0 .8-.3 1.3-.8 1.3h-1v2.8c0 .5-.5.8-1.5.8h-.7c-1 0-1.5-.3-1.5-.8v-2.8H65.2zM71.8 30.8V25l-.1 0L68 30.8H71.8z"/></g><g><path fill="#fff" d="M44.2 53.6v-11c0-.5.2-.7.7-.7h4c1.8 0 3.2.5 4.2 1.6 1 1.1 1.5 2.6 1.5 4.6s-.5 3.5-1.5 4.6c-1 1.1-2.4 1.6-4.2 1.6h-4C44.4 54.3 44.2 54.1 44.2 53.6zM46.9 52h1.9c.9 0 1.7-.3 2.2-1 .5-.7.7-1.6.7-2.9s-.2-2.2-.7-2.9c-.5-.7-1.2-1-2.2-1h-1.9V52zM55.3 53.9c0 0 0-.2.1-.3l3.9-11.4c.1-.2.4-.4 1-.4h.9c.6 0 .9.1 1 .4l3.9 11.4c0 .1.1.2.1.3 0 .3-.3.4-.9.4h-.8c-.6 0-.9-.1-1-.4l-.7-2.2h-4.2L57.9 54c-.1.2-.4.4-.8.4h-.7C55.7 54.3 55.3 54.2 55.3 53.9zM59.4 49.4h2.7l-1-3.2-.3-1.1h-.1c-.1.6-.2.9-.3 1.1L59.4 49.4zM69.8 53.8v-5.4l-3.5-5.7c-.1-.2-.2-.3-.2-.4 0-.2.4-.4 1.1-.4H68c.6 0 .9.1 1.1.3l2.2 3.8 2.2-3.8c.1-.2.5-.3 1.1-.3h.6c.7 0 1.1.1 1.1.4 0 .1-.1.3-.2.4l-3.5 5.8v5.4c0 .4-.4.6-1.1.6h-.6C70.2 54.3 69.8 54.1 69.8 53.8zM76.5 52.9c0-.3.1-.6.4-1 .3-.4.5-.6.7-.6.1 0 .2.1.5.2.7.4 1.5.6 2.2.6 1.1 0 1.7-.4 1.7-1.3 0-.4-.2-.7-.5-1-.4-.3-.8-.5-1.3-.7-.5-.2-1-.4-1.5-.7s-.9-.6-1.3-1.2c-.4-.5-.5-1.2-.5-2 0-.8.2-1.5.6-2.1.8-1 2-1.5 3.6-1.5.9 0 1.7.1 2.3.4s.9.5.9.9c0 .3-.1.6-.3 1-.2.4-.4.6-.6.6 0 0-.2 0-.3-.1-.5-.2-1-.3-1.6-.3s-1.1.1-1.3.3c-.2.2-.4.5-.4.8s.2.6.5.9c.4.2.8.5 1.3.7.5.2 1 .4 1.5.7.5.3.9.6 1.3 1.2.4.5.5 1.2.5 1.9 0 .7-.1 1.4-.3 1.9-.2.5-.5.9-1 1.2-.8.6-1.7.9-2.9.9-1.1 0-2.1-.2-2.9-.5C76.9 53.6 76.5 53.2 76.5 52.9z"/></g><rect width="128" height="128" fill="none"/></svg>